<mxfile host="Electron" agent="Mozilla/5.0 (Windows NT 10.0; Win64; x64) AppleWebKit/537.36 (KHTML, like Gecko) draw.io/26.0.9 Chrome/128.0.6613.186 Electron/32.2.5 Safari/537.36" version="26.0.9">
  <diagram id="C5RBs43oDa-KdzZeNtuy" name="Page-1">
    <mxGraphModel dx="3194" dy="2539" grid="1" gridSize="10" guides="1" tooltips="1" connect="1" arrows="1" fold="1" page="1" pageScale="1" pageWidth="827" pageHeight="1169" math="0" shadow="0">
      <root>
        <mxCell id="WIyWlLk6GJQsqaUBKTNV-0" />
        <mxCell id="WIyWlLk6GJQsqaUBKTNV-1" parent="WIyWlLk6GJQsqaUBKTNV-0" />
        <mxCell id="nhToUZ6IuXdmHXm6WEUF-5" value="" style="group" parent="WIyWlLk6GJQsqaUBKTNV-1" vertex="1" connectable="0">
          <mxGeometry x="-10" y="-340" width="1300" height="1190" as="geometry" />
        </mxCell>
        <mxCell id="oRJmL7c2nuqXQMINb2G6-39" value="" style="rounded=1;whiteSpace=wrap;html=1;strokeColor=#3A9CFF;strokeWidth=5;" parent="nhToUZ6IuXdmHXm6WEUF-5" vertex="1">
          <mxGeometry width="1300" height="1190" as="geometry" />
        </mxCell>
        <mxCell id="oRJmL7c2nuqXQMINb2G6-40" value="" style="shape=image;verticalLabelPosition=bottom;labelBackgroundColor=default;verticalAlign=top;aspect=fixed;imageAspect=0;image=data:image/png,iVBORw0KGgoAAAANSUhEUgAAAOEAAADhCAMAAAAJbSJIAAAAdVBMVEX///8ll+4fle4AkewNk+37/v8Akuy82/jE4vnj8Pzt9v1Uqu/S6fvz+f4AkO3I4vl3ufKj0fYnm+47ou+hzfVfrvBJpu84oe+t1Pfc7PvQ5/pmtPHp9P0fmO3A3vmQxfSAvvOYyfWz1/dksfF8u/Jwt/KIwvORkUBJAAAM/klEQVR4nO1dCduiKhRWQEtLKy23sr3+/08c2VQQq69cah7emXufhgh5Wc6BA+doGBoaGhoaGhoaGhoaGhoaGhoaGhoaGhoaGhoaP4tkXYczdnW6R+ZDVMGfjV2f7rGAZg1AM/xBaIa/D83w96EZ/j40w9+HxDAauz7dwwEIAFT8R/4Pj2PXpwd4juOk82yxyOap8x9uLX4eVh0tKUWS57qe53plys/AC4Ma8kORFAkpV8Nw45x8jmnKaew6/w2Ob2IJYrI/cZFim6D6A3K8AzZxJipJAfoxWeoImsAMDWOHhJTg1/Vhk6HzMUNviIq/DJmhZaRAZGgZe/Q3hrN4MUTVX0ST4VxiuDMmf2O4hsC/fU8/7jpn6KKiABR/zcLgaR/G3h8ZbklugLJhCDxF56M05QV+C8XnstQypn+Rpcvy5+A7BmrX2sIF5RAA8Vcs8GRJ86nGT2p50W0oFo/g+LUjCQQxQyEFYYZinoertqg+i+F0KBqPcL8el1uK5fU2KVJOx+PxRlNuy9u52FgclsfjlSYUXz1S564gpvAy93+DKJRMOBm7Qp3jJE7iEWw6zqSOeZGSTSbnFUWRsqMpE5qQFJ+wyF8IKS5LqeCW5W9FhiacD80w9+0KEFmG60Obn3/atl+0OU5hScUHP8b7wyIzKlMuLKWEvy3Lj8TlgomG3i57gVAD5L20P8wa2iKzhZRN+YBAJGiCcGCG1lsMm/qwjaFUPv6uNPSMwhB41TKyZOhI61JDsT9ctDKUCJrgeL2EcW4GQbi573dDM0Sp1BuKHXDcXHk39sTVKI1lhibCmyli5QEIoijpeeMo96GK4fO9hdfOUJY0MgDMkyEZIuc5w2YfFvJ20iZpjpK2UABu+uzGJsP5W304EWVPxfAsTms1xeOADFMVQ0mWug1JY8mcK4bO8z40YZ92qpe0hZjyJ23xfCLSEsdl2NQWTYZt2kLcH6oBexU1ijWNL9T1VY3fNg8NK39CsO8dVezzFSZehQbFuhTAekpRV69KwWvOGTYuwSqL7S+LFLtMwb861p6QPJmJfa/FvTRNpxTFJyy23TSdVymWkLJgKbs0XdCUrJEynadp/Qnu40701/0S7B3Z9bGkgdchaoEPOcWDTuEwtJbyShae5HnZ6hJA9JAh7Mk2Za1mURjG7A9GFEZR+c+YpoQR+7JCmSJ9EVcJEftnbNoQPtMU/qEfgm4MgfRsQP52AdD40JoTBn2Z3jYvrDP6B0L3vtaj6QtLxZ5R7JuCQ397w/2IDBGxBqHo1OuR6YgMwfp8nizSvg0Y4zEc6k7DdDSGcD8MQ2kXPyB63SbV4IzVh3CoJehuJHUIwFD3MXbjEDTRcSCChtGwQw/EcLhj/KaVdhCCl8EIGpdR+tAf8FztBStt9xiyC431GOoCpc8r1hkWIzBE2+f16g67ERjCYe9DDa8u0H1QgsZmaIYgH/h66WloYQrPwxKUbPD9Y4RbNAP34aCagmLYVQ3sySr6CM+PvDrEKN57Q24RwYB7ihpmww3Tfg9AWzHcMB3rXrA31DBF0Vh3u+VbkX0h7/9eVwuGUfqjupG8cAvkc4wkZSiGsO3743qXhr13Yl8nvK9i4T+v40cYY7EmYtavOB3Mht8O5/E1ic8A/KG3hCqc+hM2AH2F/48R9TVOUf4djni9ndHAy1e44WH0Ik+BPb6MqbDuniIMh7dZPMKhY4pgfC0o49CpQIXRd3UgQYfnNDD4BiXYxCLvRmnA/JskjAB300E3+sH6a1SEApPg6VXQh0AwTr6ZXwFrnb/NEUD00Nn5W2AlIfz7fMTuZ7O+3c+6w/wYQyTfHn7ArqBnXpLRTE3vIT1FJkRP+xIUMw/m0Sn78smnhpetLzGAEHtCNlxcScdBlIe3JPuZsamENz+frrM4L6RIwYgC2TAIossxmfZ+BXZAeF6aZoviT5bN0533292moaGhoaGhoaGhMRzOs6gzi9hiFn5fkOSJD4Df0X3dhY+A/xVxAuuYge78jy7YFGB/24YqxDt11E2tyN04+9vMNFHXDAe+g/8cmuFfoBmOg+4ZakkzNDTDv0AzHBA1G3wrw1fs9FKe75A01uK0CeM4uqznpH4qhk5yneE8y1X7PYpstY3iOLwcFhXNlj6cRPFRaIsUlx9Gl8NUbtlDGNHIydb8dInCOJpdz39rsd0xp3Ga8IFRcPJUDBczWOZBkTJUs7cOqjzmnddBydDdQFCP/mQlIYI0nieC+U1ow6VvAn9flH9g5eM8aPn6sY91R8L9SmgmjZV3GgmH2wCGTY/rVV6/yACQfWhnmNCzR8RbYRrXywfIv1b1d3FWtDHWpnBRAr4cAMUJ5RsWAM6I92jFMLEbJ4TypTRr48t5IH1XRZOhM2N8+I7j2LhxhfLy9r6L6wfirXyBAL546ShThaKiR9glw1Oj8gV8IYKaGysOhIG5MxSSZs2HDH97kPIWi81vFbl+VSWB4WuO+zw0bjGy8cuNhEsInOGJtzD5FvG2rIcT5QSlYsjlNakPqwHPQ67yiFsAQoDK3wIel92tdTAt38RjHL0WR9HL6dNQfs92lrXbb2ttxRhO2BNguEo9w0uTiDW5vyrLYXfBgXmb4GKyA70/hZYNhgc+4FHOOukIGaNNkrqWk93LCy2OzBDl16mDyz/FaPaaNKUulADey4ntXMohQxm6dEyhvAr8swgooXImsHvS8FYGWbfuOIlc4q4zzGJeOtyyEcIcOmBUDjqLDWMW07tkCOC1kn0vStIp+7Fwkae8okcZbinBmRAYkA4sHs9pR6MR+YIO2ec2xF1YY2gd+YRGAW8vFudavIyZUj95Gg2SMwTojdcJUJcfW7qptII1himpPZBdy6hjIot7eyV8benCoZXtqqxY0ixKaQQrZUAfBiVzo0t5E+d1zvCd9yXMaekrOf0GKoYk/AcVinV4pArUaZBO5tbAOYQh2lm3coDWX1xFQsSgjfwjGqSKjHLG8K1gBLT2Tfdbt9IWdBApvD6I7yUwcSOQOM7twQIIQ7AOShl5qI0HGthPsS4n0T5JkFrGMH/n6gpZuai8/O+IMyQ1AKBZOqOOe4MMUtR6q5kO6FINibeDyaQHinAf1AUZWZzhW641Hii7QQIdvpgh6R+lB+sB8eeGLd3AIPoSA1f48kaIRNelDBqxFWt1yhC9szkh4cqU8e0sk6/aSOAIpXsgCT5OJh+ehiBoHUQSQ1FmMfdG1ASdsnvGEL9O8e8gQcfVHsYB70PSU7bKdSfjveuRurSvMCR/cDGI0JNYVFg+0z58630XRF6RZUcDMWd4bGVI1AgOmLMjorS9BowhgBGtNaw/sfHWhxaG74UjoFJEGZeJPBjLFzrbVHEMyVwl7UMYtEcCpAwBSoyESsW6dn/ch8BPOcO3gkXSWPaq4UUFGa40kXXKl74QdUGUFG0OV5GnYggu+HvmtFHTwBtGXwmbCIAPGBpUUyuEINVweGBMy08ySN1IFein1niVTOOTz1dK0S8zU01zTOdKkFb7hCGpmmqtQCuFBxPZYKs2mztQfkHkLWgsS4TCuDJhC1rEl9nn52LkE4Yrqs4bmoYu9yHZZRNx3lxVsZf5kSE+r2VXQNw9MfXAHQ9ZCz5acn7C0KOrarn6Ho3/TicojYzR0Ij0VRxsglJx0aYRRYbsHQSl/iQnxGbemMU1O80HDNmmQHr3h0ddRvlqjspzaf+RUZMaEy+0FeTQFufj2msy5PHzee6M2ihCcWV1jvPynasfMfTobhpu62vhuL795NUXLU/sPQblnof67KOoJrS8GUQw9oymnSZjW2qmpugmHAX1qX6AAJS2tI8Ycg2FghVrsd2R7a/tcsvNzCgw4t24YKay6r1aqc2E/p1x9E7EjEHUQsPWtuAWAUqA9ilAV55lSs0kvFE+Y2jwTRvMN6f1+jDjPhS1icff3gFgsD2tT7fS96kWj6TcNINoeTrdZ4D101HFsNT8J0YY8N/e16t1Wb7vdsLQ4GYZQLQuX0IKRgUn58nVkhg3en1clR7tQjFE7ykswtyuQ5sx4U2GTe6lta9cv37KsFDCTWOotO13FMZQEIjmSt6L9SxUhKls3swEzPadE1UVIpWkcc/7Nxz4E9m7BwayavOaBueNLN8z2XMPIdpOG9XZE53cPDWVfwtq8t2tLatW+/M772DbXSpDMLbm3hWKbV/zWCsGU6xQ0dYB1N4Wgewt6zZiV5QX5hbR/KVlwjqZNY6okmoGe08RY7zar9K3PIjTQwygDYu/ZrRqWULvtwF1/EH5tmUN6q6jHBdT5IkP5bD0Ygj9xi+82PftWqq3jgAp3obBTRxDE9v3Y2adnqZv+4C72eScTNKHx77O9Jyc984jk5CXFsWcM2EkeZNE0e7WRD4DdLNzsirKbz43OfNn7r7QB1xDQ0NDQ0NDQ0NDQ0NDQ0NDQ0NDQ0NDQ0PjP8Q/D2vJ20M4TbcAAAAASUVORK5CYII=;" parent="nhToUZ6IuXdmHXm6WEUF-5" vertex="1">
          <mxGeometry x="140" y="20" width="70" height="70" as="geometry" />
        </mxCell>
        <mxCell id="nhToUZ6IuXdmHXm6WEUF-6" value="" style="group" parent="nhToUZ6IuXdmHXm6WEUF-5" vertex="1" connectable="0">
          <mxGeometry x="640" y="100" width="640" height="1020" as="geometry" />
        </mxCell>
        <mxCell id="oRJmL7c2nuqXQMINb2G6-5" value="&amp;nbsp; &amp;nbsp; &amp;nbsp;Container: db_sqlite&amp;nbsp;&lt;div&gt;&lt;font style=&quot;font-size: 20px;&quot;&gt;port: 8080&lt;/font&gt;&lt;div&gt;Services:&amp;nbsp; &amp;nbsp; &amp;nbsp; sqlite&amp;nbsp; &amp;nbsp; &amp;nbsp; &amp;nbsp; &amp;nbsp; &amp;nbsp; &amp;nbsp; &amp;nbsp; &amp;nbsp; &amp;nbsp; &amp;nbsp; &amp;nbsp; sqlite_web&lt;br&gt;&lt;br&gt;&lt;/div&gt;&lt;/div&gt;" style="rounded=1;whiteSpace=wrap;html=1;verticalAlign=top;spacingTop=35;fontSize=30;strokeColor=#3A9CFF;strokeWidth=2;spacingLeft=-24;" parent="nhToUZ6IuXdmHXm6WEUF-6" vertex="1">
          <mxGeometry x="-20" width="660" height="1020" as="geometry" />
        </mxCell>
        <mxCell id="oRJmL7c2nuqXQMINb2G6-44" value="" style="shape=image;verticalLabelPosition=bottom;labelBackgroundColor=default;verticalAlign=top;aspect=fixed;imageAspect=0;image=data:image/jpeg,/9j/4AAQSkZJRgABAQAAAQABAAD/2wCEAAkGBxIHBhITExIVFhUVGRgWFxgVGBcaGBcaGBgaGhoYFRcaHSggGBwmHxcXIjEiJSkrLi4yFx8zODUtNygtLi0BCgoKDg0OGxAQGy0lICYtLS0tLy83LS0tLS8tLS0tLS0tLS0tLS0tLS0tLS0tLS0tLS0tLS0tLS0tLS0tLS0tLf/AABEIAJoBRwMBEQACEQEDEQH/xAAcAAEAAgIDAQAAAAAAAAAAAAAABQcEBgIDCAH/xABIEAABAwIEAgUFDAgFBQEAAAABAAIDBBEFBhIhBzETQVFhcRUiMoGRFkJSU2Jyc5KTsbLRFDM2Q1SCobMjNIPBwiU1dKLDJP/EABoBAQADAQEBAAAAAAAAAAAAAAACAwQBBQb/xAAuEQEAAgIABAQGAgMAAwAAAAAAAQIDEQQSITETMlFSFCJBcZGxM0IFYYFyofD/2gAMAwEAAhEDEQA/ALxQEBAQEBAQEBAQEBAQEBAQEBAQEBAQEBAQEBAQEBAQEBAQEBAQEBAQEBBwllbBGXOcGtG5LiAB4k8l2ImZ1DkzERuUU7NNE0/5qL1OB+5X/CZvbKj4vB74/L57qqL+Ji+snwmb2y58Zg98Huqov4mL6yfCZvbJ8Zg98Huqov4mL6yfCZvbJ8Zg98Huqov4mL6yfCZvbJ8Zg98Huqov4mL6yfCZvbJ8Zg98Huqov4mL6yfCZvbJ8Zg98Huqov4mL6yfCZvbJ8Zg98Huqov4mL6yfCZvbJ8Zg98Huqov4mL6yfCZvbJ8Zg98BzXQtFzVRfWSeFzR/WXY4vBP94VrnTi098roqCzWjYzuFy76Jp2A+U4EnsHMyx4PrZXl4nXSqupMw1ks2s1dQXc79NJceFnbepX8lfRl8W/qsjhtxKklrmUta/UHkNjmNg4OOwZJ8IHkHc7873uKMuGIjdWrDxEzPLZcCytggICAgICAgICAgICAgICAgICAgICAgICAgrPGJnZpzDKxziKendpDRtqcCQSfWHb9QtbmSvbwVjh8UTHms8Dick8Rlms+Wv7ZLcDpWj9S313P9SVzxsnqj4WP0ffItN8Sz2J42T1PCp6QeRab4lnsTxsnqeFT0g8i03xLPYnjZPU8KnpB5FpviWexPGyep4VPSDyLTfEs9ieNk9TwqekHkWm+JZ7E8bJ6nhU9IPItN8Sz2J42T1PCp6QeRab4lnsTxsnqeFT0g8i03xLPYnjZPU8KnpCrs7YvDVVhipmNbGw2c9v7xw7D8AdXbz7FC2W9o1MrK4qV6xHVq6rTZdJRGaB0rjpiYQC7tcdxGztebE9wBJ7+TP0WVpuNz2Yrtztt/t611DfV6hydiRxjK1LM43c+Nus9rwNLz9YFedeNWmHr0tzViUyopCAgICAgICAgICAgICAgICAgICAgICAgIKtwB1qys+md95XvZfLT7Q+cp57/APlKY1qjSzZrTRs1po2a00bNaaNmtNGzWmjZrTRs1po20/iHmI0FH+jxm0ko84jm1nL1F248Ae5RsnWPqq5RSSuW8Dfj+JCNpDGtBfLI70Yo27ue7wHIdZ7NyI3vFYWY8c3l9zFiTK2payBpbTQ3ZC08yD6Ur+2R5AJ/lHvQlK66z3dy3iZ1HaESpKno/hVGYsgUgPWJHep0r3D+hCwZvPL1cEaxw2xVrRAQEBAQEBAQEBAQEBAQEBAQEBAQEBAQEFUYM61bV/TP/EV7+Ty0+0Pm6+e//lKV1qrSezWmjZrTRs1po2a00bNaaNmtNGzWmjbHr65tBRvlefNYC4/kO8mw9a5PR2Os6UviVa/Eq58r/Sebnu7AO4Cw9SpXOmGJ08zWNBc5xDWtHNxJsAB2kkBJnTsRMzqG+5sa3JmWWYdGQaioDZax7ez3kQPwb39QJt56op89uae30a8msVOSO891fq9jOfLfwR2I3L1Xl6g8lYFTwdcUTGHvLWgE+s3K8207mZexWNRpILjogICAgICAgICAgICAgICAgICAgICAgICCo8Mdauqvpn/iK+gv5afaHzUee/3lI61XpLZrTRs1po2a00bNaaNmtNGzWmjZrTRto/EXFb6Kdp+W/wD4j7z9VVZJ+i7HH1aOq01k8LcJjw6inxapH+HAHCEH3z+TnC/M3IY3vcesBZ81tzyQ2cPSKxz2aFi+IyYviks8pu+VxcewdjR3AAAdwCvrHLGoZr3m1tyw11BtHDTB/LWcoGkXZGemf4RkEe15YPWVXltqq/h6813pNYHpiAgICAgICAgICAgICAgICAgICAgICAgICCnqJ1q+q+mf+Ir6K3kr9ofMf3v95ZutQ0ls1po2a00bNaaNmtNGzWmjZrTRtxkmEUZcTYAEk9gG5KCo8RrDX18kp5vcT4DqHqFh6lkmdztriNRp24Hhb8bxeKnj9KVwaD8Ec3OI7GtBd6lG1uWNp46c1ohYXF3Eo8No6bC6faOFrXSAdwtG1x6zzeb8y5pVGCu5m8tXE21EUhV60MQgvbgrgHk7L7ql4s+pILb9UTbhv1iXO7wWrHntu2vR6XDU5a79ViqhoEBAQEBAQEBAQEBAQEBAQEBAQEBAQEBAQEFMwOtiFT9K/wDEV9H/AEr9ofLz57/ef2ydajp01poNaaDWmg1poNaaDWmhCZxrf0fBXNHOQhnq5u/oLetV5Z1VZijdleLK0rX4QYczCMHqsUn2a1rmx/NZvI5vaS4Bo67tcOtZs9tzFIbuGpy1m8qzxbEH4tics8npyuLz3X5NHcBYDuAWisajTJe3NaZYi6gm8m4A7MuYYqcX0nzpCPexttqPcTcNHe4KGS/LXa3Dj57aenYImwQtY0BrWgNaByAAsAO6y896rmgICAgICAgICAgICAgICAgICAgICAgICAgIKVa62I1P0r/xFfSx5K/aHy1v5Lfef27da5pw1poNaaDWmg1poNaaDWmhp2d6jpKyNnwWl3rcbf8AH+qy556xDVgj5ZlAUdK+urI4mC75HNY0fKcQBf1lZ5nUbaK15p0tbizVMy/lakwyE7FrXP5XLI+RcO18nnX7WFZsMc1ptLbxForSKQqNamAJsEdeguE2VvIGA9LI209RZzgebGe8Z3Gxue91uoLFmvzS9LBj5K/7lvKpXiAgICAgICAgICAgICAgICAgICAgICAgICAgpCR1sSqPpX/iK+mr5K/aHyt/5Lfef2+600js1po2a00bNaaNmtNGzWmjZrTRtpWM1oxSMv8AfRvLR3xuPmn1EW/mCxZLc8b9P03UrydP/ttp4KYR+n5rMxF20zC7+d92t/p0h8WhYs9tV038LXdttez9jXl3NlRKDdgd0cfZoj80EdxILv5lZiry1iFWe/Nd2YPk2euhEsro6WA/valwjBHyGmxf3cge1ctliOkdXaYJnrPSFl5EyVhMxL43urHxOAdI4OEQfa9mNsGu6jYl9rjfcLPkyX+vRqxYsf06t6x/HqfL1D0tRIGN5DmXOPYxo3cfu5nZVVrNp1C+1orG5QDM211ZGH0+DzuYeRmlhgcR26HElT5Kx3sjz2ntV1y8RI8MnDK6kqaQnk5zRJGe5r4ydR8AkYpnyztycsV80aTmWMyQ5nppZINRZHIYg5wtrsxjtTQdwPPtuAdlC1Jr0lOt4tG4TKikIIPMWbaLLjf/ANE7WutcMF3PI7dDdwO82Hep1pa3ZC2Ste8oaDO1TiUeqlwmqkaeTpnRwA97S4m47wpeHEd7Ixkme0Ox+ba2jj1VGD1LWjn0EkM5+q0grnJWe1nee0d4SGXs60WYJNEUwEnXFICyS45gNPpW69N7Llsdq93a5K27NhUE3CZxbE4tGpwBIF7XNthfq8UFeZg4i1eXHN/ScKLA7ZrhUtc1xHUHNjNj3GxV9cVbdpZ75rU71Y+CcUqjHqzoqfCzI+1yBUAADtc50YAHrXbYYrG5lGnETedRVZVO5z4GlzdLiAXNvfSSNxfrsdrrO1OxAQEBAQEBAQEBAQEBBRdU7TidR9K/8RX09PJX7R+nyeT+S33n9uGtS0js1po2a00bNaaNmtNGzWmjbor6wUlI55FwLbdtyB/uoXty12nSvNbTS62MU9U8N9E7t72us5v+3sXn3jltMQ30ncblaOUJPcxwkqqvlJOXCM9Yuehj8bO1P8CsV/myRD0cfyYtqrpap1IbssHdTrDU35pPonvFiO1aZjbHFpjszsGwyfM+OsiaS+WQ+c95LrAek97jvYD/AGHMhctMUjaVK2yW09L4Bg8WA4THTxCzWC1zzcebnO7ybk+KwWtNp3L061isahWWA1YzdxgldL50dK2XoGHdoMUjIw4DtJcX353Dfgi19o5MXT6s9Z58s7+i3VmamHi+FxYzhz4ZmB0bxYg9XYWnqcOYPUQuxMxO4cmImNS0/hDh7sJwyugcbmKskZfttHFZ1uq4sfWrc07mJ/0qw15a6/23xUrlb8UeIBwK9LTEdORd79j0IIuABy1kb78gQesK/Fi5us9mfPm5Okd3HhpkQQQtrawGSoltI0SXcYwdw52rcynnc7jbkbplyb+WvYw4tfNbuspUNAg0jiHkSPMVMZoWhlWzzmuG3SaeTXnt22dzBt1K3Hk5ek9lOXFFo3Hdr3DLiG+epbRVrjrJ0RSv2cXcuilv7/qDjuTsd9zZlxf2qrw5t/LbuthZmpX/ABvYHZMBPVNGR7Hj7iVdg87PxP8AGgOADRrrz1/4A/vKzifor4T6rfWVsEBBCY9myjy/Uxx1MwjdJu0aXna9tTi0ENF+s25HsKlWlrdkLXrXpMppjg9oIIIO4I5EdoUU31AQEBAQEBAQEFDYg62KT/SSfjK+px+Sv2j9Pksv8lvvP7dOtS0hs1po2a00bNaaNmtNGzWmjbAxthnw1wHVZ3jbcqnPWZpOl2C2rw1V7y9g6yBYeF7ge0ledMvQiOqzuLUnkjLmG4e0+gwPf4sYGNJ8S6Q+IWXD1tNm7iZ5aRVWEcZlkDWguc42AaCSSeQAG5PctLFETPSHobhpk0ZXwrVIAamUAyHnoHMRNPd1kcz2gBYcuTmn/T08OLkj/bc1UuebPKMuTeIE0gF3RTSBzTsHxucdu7U0gg9RsepbuWL0iHmzaceWZX9lzMNPmTDxLA+49807PYfgvb1H+h5gkLHas1nUvQpeLRuEqopOLIwwmwAubmw5nlc9p2HsQR+ZMWbgWBT1DrHomFwB21O5NbfvcQPWpVrzTpG1uWJl58yVQuzRnmETEv1yGaYn3wbd7tQ7HEBtvlLbknkp0efijxMnV6VWB6QgICDz1xewoYVnR7mCzZ2tmFtrOJLX2Pbqbq/nW3DbdXn8TXlvuFw8PceOYsqwyuN5BeOX57NiT2ahpd/MsuSvLbTZivzViUJxt/Yr/Wj/AOSng86HE/xoLgCPMrvGD/6qfE/RVwnaVuLM2CAg1bOmRqfNzo3SOfHJGC0PZa5aTfS4OBBF9x2XKspkmnZXkxVv3bDh1G3DsPihZfRExsbbm50saGi56zYKEzudpxGo0yFx1rsWZRPnp1A0NIjpzNI6+7X62AM+q8OPzgp8nycyHN83K2JQTEBAQEBAQUFip/6rP9JJ+Mr6rF5K/aP0+RzfyW+8/ti3U1ZdAugXQLoF0A7hNG0NlLD/ANMzjSw8/wDHbfvax2p3/q0rxM3yxMPc4f57VltubcLnzxxNnhhtphDInSH0Y2tF3F3adbpAGjc27iRRS0Ux7lpyUnLk1HaFo5TybS5XgHRM1SEWdK+xe7tAPvW/JG229zus98k27tNMdaR0bEoLBBXfE/h+cwn9JprfpDRZzDYCYDludg8cgTsRYEiwV+LLy9J7M+bDz9Y7qYpKupy5ipcx0kE0Z0kWs4del7SLEcjYgg7LVMRaGGJtjn0XDknirFij2w1gbDKdmyDaJ577/q3eOx7RcBZcmCY6w24uIi3Se6ylQ0q/43VBhyWGj95NGw+ADn/ewK7BHzs/EzqjR+BjNWcpD2U8hHj0kQ+4lXcR5VHCeaV8LG3iAgIKd4/RgVNC7rLZx9UxEfiK1cN9WPi+0M7gHOThdWzqbIx/rc2x/AFHiO8JcJPyzCV42/sV/rR/c5RwedPif40HwB/U13jD90inxHeFfCdpW2szWIOuoeYqdzmtL3AEhoIBcQNmgnYE8t0Fa5uzti+DUYkOHRwMJ06nyNnIJva4jcA0m3XcdSvpjpadbZ8uW9Y3pO8LcfnzHl58tQ4OeJnMFmhoDQ1hAsO9xUctYrbUJYbzeu5Z2aJMUcSyhjpwC39bK86gTe+mPTbbaxJI7lGvL/ZO/N/VTPDWqrp80yyUnRSVD4nueakvsWmSMuddpBLtWn2la8sViup7MWCbzadLjy7Liz8QIrY6NsOk2MBk167i3pOI021f0WS3Jr5dttef+zZlBNpGN5xnqsadRYZC2adn62WQ/wCDDvYgkEandXPY7ecQQLa44iOayq2SZnlq07MuY8fynUtdUSRuY82aWxsdETz03DWvBtvY897XsbW0pjv2UZL5cc7ns3rhxnH3XYY8va1k0RAkDb6SHA6XtBuQDZwsSfRKpy4+SV+LJ4kbbcq1ogoLFf8Aus/0kn4yvqsXkr9o/T5HN/Jb7z+2KrFYgICAgICDP4a0YfxJDj+7jkl9rAz/AOhXi8fGpn/b2/8AHdYifRb+VsFGDYebgdLM9007ueqWQlzt+sC+kdw7brzbW3L1axqEyopCAgIIHNOUaXNFPaZnngWbKzaRngesfJNwp0vNeyF8dbx1UPnTJdRlOpHSefE42ZK0Wa4/BcPeOtvbr3sTY22Y8kXedlwzjWFwXzY+ua6imcXGNuuFx3OgEB0ZPXpu23cSOTQqM9NfNDVw2TmjllPcYqE1uR5CBcxPZL6gdLj6mvcfUoYZ1dZxFd0lXHBKoEGdiCf1kMjB3nUx/wBzCtHER8rLws/Mv1YnoCAgIKY4+VAfiVHHfdjJXkdz3MA/tn2LVw8dJYuLntCc4E0Rhy5PKRbpZbN72saBf6xePUocRPzaWcLGqbZnG39i/wDWj+5y5g86XE/xoXgF/lq350X3PU+I7wr4TyytlZmsQEGlcYv2Bn+dD/dYrcPnhTn/AI5YPA39j5Pp3/gjUuI8yPC+RYaoaFDcB/2uk/8AFf8A3YFs4jy/9YuG88r5WNta5xCxt2X8pzzMNpCBHGexzzpDh80Eu/lU8dea0Qry25azKI4OYY2iyayW3n1DnyPJ3JAcWNF+yzb+Lj2qWad20jgjVN+qM4oYmMxsZhtGOnnMgfJo3bCG3Hnv5NNz6gDfci8sUcvzSjm+eOSrZsg5RZlLCSzUHyyEOleORIGzW9eltza/O5O17CGTJzynixxSNNnVa0QUFiv/AHWf6ST8ZX1WLyV+0fp8jm/kt95/bFVisQEBAQEBBtPCaHVnGof8GnDfryA/8F4v+Tn5oh7n+Kj5Zlby8t6wgICCFydjJx/LsU7g0OcXhwbcAFj3M2BJI9G/PrUr15Z0jS3NG00opMLGcMjxnC5IJRdkjS093Y4dhBsQe0BdrMxO4ctETGpUTwgp3jiBGB+7bLrtysGlvs1OatmafkYOHiYyL+q6ZlZSvjeA5j2ljgeRa4WIPqKxROnoS85VlHNw9zuwkEiF4ex3xsRuDbquWlzT2G63RMZKPOmJw5NvRlFVMrqRksbg5j2hzXDkQRcFYpjXR6MTt3LgIPjjpbc7AIPOmZ6mTPmfXCnGoOIih7BGz35PU303+Du1bqRGOnV52TeXJqF+4FhTMEweKnj9GJobfrcebnHvJJJ7ysVrc07lvrWKxqGn8bf2LH00f3OVuDzquJ/jQvAL/K1vzovuep8R3hXwnllbKzNYgINK4xfsDP8AOi/utVuHzwpz/wAcsHgd+xz/AKd/4I13P5keG8iwjsFS0KH4DftdJ/4r/wC7AtnEeX/rFw3nlfKxtqu+Ocbn5PjI5NqGF3hokb97mq/h/Mz8T5GLw7y5Dj+TYHTT1MjPPYYOmcyFul7hbRHpLgRY+cT6SZLTW06MVYtSNrCwzC4MJpujgiZEzsY0NBPabcz3lUzMz3XxER2ZL5WxuaC4AuNmgkAuNi6ze02BPgCuOuaAgqXPuW5MPxKSdjSYZCXkjfQ47uDuwE3IPLey97geJrekUnvH/t89x/CWpeclY6T1+zUbr0Hm7LobguhuC6G4LobguhuC6G4bpwhH/X6z6KH8cn5LxP8AJ+ePs97/ABX8c/dai8x6ogICCjuHGaJstCXpoJnUMj3Eytje5sTwbOdcCxbsLj5O29wdeSkW7T1Y8V7V3uOi4KDHqXEYNcVTE9va17TbxF7g9xWWazHeGuLRLXc359gwuldFTPFRVvuyKOH/ABCHHrfpvy56eZ9pFlMcz1nsrvliI6dZY3CvJbss0DpZwP0iYAEbHo2DcMv1uJ3dbbYDque5cnNOo7OYcXJHXu3xUrkHm7K8GasN6KUWc25jkHpRu7R2g7XbyPiAROl5rO4QyY4vGpV/gdbXcM5DBVxOmobktmiBcIrm5d8kG9yx1t7lpO97rRXJ1juopzYuk9YWLhWaKLF4g6Gqidfe2oBw+cx1nN9YVE0tHeGiL1ntLniOYqPDI9UtTCwd723Pg29z6gkVme0E2iO8q/zBmGsz5GaXDIXinf5slTICxj28i1pI2Z2gXceVgL3urWtOtu/oova2T5advVtmRslQ5SpDY65ni0kpFrj4LB71t+rr6+QtXkyTeVmPFFI6NoVa1UXGXNdLX4QymgmZK/pQ9+ghzWhgcLFw21aiNu436lpwUmJ3LLxN45eWEBwlzfBlqsnjqHFsc2gh4BIa5mr0gBexDufVp77qebHNusKuGyRXcStr3dYZb/PQfXCzeHb0bOevqicb4p4dh1M4xS9PJbzWRh1ieq8hGkDt3J7ipVw2lC+etYZ3DGeSrybDLK4ukldNI4m/vpnkWvyFrWHUuZYiLahLFMzWJlrfF/M9HPliWmZURvmMjGljHBzmlj7u129G2m2/Wp4aTzbQ4i0ckwj+DubKPC8BlgqKiOJ4lLx0jg0FrmMGzjte7XbeClnpM23EIcNb5dStxjhIwEG4IuCORB6wszU87cO8ZZkzNzzUhwAZJTvsCSxwe03IG53jtt2rdlrz16PPxXjHeeZaBzfNmtxhwtjg07SVkrbRxDr6Nh3kk7AbWNr7bjNyRXrb8NfPNvL+U/jmXRi+U30b5HOJja0SSbu1ssWPfa1zqaCeV91GttW2lanNXlU3lXM1Tw4xWWnqIXFjjd8d7EHl0sTuTgQLdhsNxZar0jJG4Y6XnDPLaOjdarjPRMp7sgqHOts1wjaL/KcHm3qBVMcPZd8VT6MnI8dVmjFhiVY3Qxgc2khsQG6tnS2O5JHmhx53JAA0rmTlrHLX/qePmtPNb/iwlSuEBBiOwuBzrmCInvY38lZ4t/dKHhUn6Q+eSaf4iL7Nn5J42T3T+XPCx+2PweSaf4iL7Nn5J42T3T+Twsftj8Hkmn+Ii+zZ+SeNk90/k8LH7Y/B5Jp/iIvs2fknjZPdP5PCx+2PweSaf4iL7Nn5J42T3T+Twsftj8Hkmn+Ii+zZ+SeNk90/k8LH7Y/CJhpo6HOwDGNZ0tK7ZoAB6GZtzYfThLWtavWdlaxW3SGxKtYICAg64IGU0QaxrWtHJrQABc32A25lBFV+VKDEZS6Wjgc483GNuo+LgLlSi9o7SjNYn6MjC8CpcIJ6CniiJ2JYxoJ8XAXK5NpnvLsViOyRXHRAQEGjZ94eQZho3PhYyKpbu1zQGtk+TKBzv1O5jvGytx5ZrPXspyYYvHTuoqnklwLFg7QGywv3bI0EBw2LXtPMdX3dq2Tq0PPibUt1ekcnZlizRgzZY7NcLNkjvvG63LvHWD1jsNwMN6TWdS9PHeLxuE6oJiDDOE05P6iL7Nn5Lu5c1D55Ip/iIvs2fkm5NQeSKf4iL7Nn5JuTUHkin+Ii+zZ+Sbk1DKiibDGGtaGgcgAAB4ALjr4YGE+i32BB8/R2fAb7Ag7RsEEXXZdo8RqekmpYJH/CfGxzjblckb+tSi1o7SjNYnvCRiibDGGtaGtGwAAAA7AByUUnNBi4hhsOJxaZoY5WjkJGNeB3gOBsuxMx2cmInuw6PLFDQyh0dHTscOTmxMDh4G1wuze095citY+iWUUhAQEBAQEBAQEBBDYxGY8Zopg29nyQvI96yZl7+HSRQj136lKO0wjPeEyopCAgICAgICAgICAg0biJkBmaI+mi0sqWi1z6MoHJsluRHU71G4ta3HlmvT6KM2GL/dUGHVldkDHg4xuifycyQeZK0cxcbOHY5pNj6wtUxXJDJWb4bdYXTl7iPh+M04LpmwSe+ZO4MsfkvPmvHgb9oCy2xWq20zUtHdO0WP0lfW9FFUwySaS4tjka5waCASQ0m3Me1Qmsx1mFkWieySUXRAQEBAQEBAQEBAQEBAQEBAQEBAQEBAQEBAQEBAQEBAQEBAQEBB1VVMyrhLJGNe082vaHA+IOyROiY2hXZKw1zr/oNP6o2gewCyn4lvVDw6+iVw/DYMMi0wwxxN7I2NYPY0BRmZnulERHZlLjogICAgICAgICAgICAgICAgICAgICAgICAgICAgICAgICAgICAgICAgICAgICAgICAgICAgICAg//2Q==;" parent="nhToUZ6IuXdmHXm6WEUF-6" vertex="1">
          <mxGeometry x="40" y="31.460000000000008" width="100" height="47.09" as="geometry" />
        </mxCell>
        <mxCell id="nhToUZ6IuXdmHXm6WEUF-9" value="" style="group" parent="nhToUZ6IuXdmHXm6WEUF-6" vertex="1" connectable="0">
          <mxGeometry x="20" y="180" width="335" height="810" as="geometry" />
        </mxCell>
        <mxCell id="oRJmL7c2nuqXQMINb2G6-0" value="&lt;font style=&quot;font-size: 24px;&quot;&gt;CREATE&lt;/font&gt;&lt;div&gt;&lt;font style=&quot;font-size: 24px;&quot;&gt;&lt;br&gt;&lt;/font&gt;&lt;/div&gt;&lt;div&gt;&lt;font style=&quot;font-size: 24px;&quot;&gt;&lt;br&gt;&lt;/font&gt;&lt;/div&gt;&lt;div&gt;&lt;font style=&quot;font-size: 24px;&quot;&gt;&lt;br&gt;&lt;/font&gt;&lt;/div&gt;&lt;div&gt;&lt;font style=&quot;font-size: 24px;&quot;&gt;READ&lt;/font&gt;&lt;/div&gt;&lt;div&gt;&lt;font style=&quot;font-size: 24px;&quot;&gt;&lt;br&gt;&lt;/font&gt;&lt;/div&gt;&lt;div&gt;&lt;font style=&quot;font-size: 24px;&quot;&gt;&lt;br&gt;&lt;/font&gt;&lt;/div&gt;&lt;div&gt;&lt;font style=&quot;font-size: 24px;&quot;&gt;&lt;br&gt;&lt;/font&gt;&lt;/div&gt;&lt;div&gt;&lt;font style=&quot;font-size: 24px;&quot;&gt;&lt;br&gt;&lt;/font&gt;&lt;/div&gt;&lt;div&gt;&lt;font style=&quot;font-size: 24px;&quot;&gt;&lt;br&gt;&lt;/font&gt;&lt;/div&gt;&lt;div&gt;&lt;font style=&quot;font-size: 24px;&quot;&gt;&lt;br&gt;&lt;/font&gt;&lt;/div&gt;&lt;div&gt;&lt;font style=&quot;font-size: 24px;&quot;&gt;&lt;br&gt;&lt;/font&gt;&lt;/div&gt;&lt;div&gt;&lt;font style=&quot;font-size: 24px;&quot;&gt;&lt;br&gt;&lt;/font&gt;&lt;/div&gt;&lt;div&gt;&lt;font style=&quot;font-size: 24px;&quot;&gt;&lt;br&gt;&lt;/font&gt;&lt;/div&gt;&lt;div&gt;&lt;font style=&quot;font-size: 24px;&quot;&gt;&lt;br&gt;&lt;/font&gt;&lt;/div&gt;&lt;div&gt;&lt;font style=&quot;font-size: 24px;&quot;&gt;&lt;br&gt;&lt;/font&gt;&lt;/div&gt;&lt;div&gt;&lt;font style=&quot;font-size: 24px;&quot;&gt;UPDATE&lt;/font&gt;&lt;/div&gt;" style="shape=cylinder3;whiteSpace=wrap;html=1;boundedLbl=1;backgroundOutline=1;size=15;spacingTop=34;gradientColor=none;fillStyle=auto;fillColor=light-dark(#B3B3B3,#EDEDED);shadow=1;strokeWidth=3;verticalAlign=top;align=center;" parent="nhToUZ6IuXdmHXm6WEUF-9" vertex="1">
          <mxGeometry width="335" height="810" as="geometry" />
        </mxCell>
        <mxCell id="oRJmL7c2nuqXQMINb2G6-12" value="produits" style="shape=internalStorage;whiteSpace=wrap;html=1;backgroundOutline=1;verticalAlign=top;align=center;spacingLeft=20;spacingTop=-5;" parent="nhToUZ6IuXdmHXm6WEUF-9" vertex="1">
          <mxGeometry x="131.5" y="117.10843373493977" width="80" height="48.795180722891565" as="geometry" />
        </mxCell>
        <mxCell id="oRJmL7c2nuqXQMINb2G6-13" value="magasins" style="shape=internalStorage;whiteSpace=wrap;html=1;backgroundOutline=1;spacingTop=-5;verticalAlign=top;spacingLeft=19;" parent="nhToUZ6IuXdmHXm6WEUF-9" vertex="1">
          <mxGeometry x="221.5" y="117.10843373493977" width="80" height="48.795180722891565" as="geometry" />
        </mxCell>
        <mxCell id="oRJmL7c2nuqXQMINb2G6-11" value="ventes" style="shape=internalStorage;whiteSpace=wrap;html=1;backgroundOutline=1;spacingTop=-5;verticalAlign=top;align=center;spacingLeft=18;" parent="nhToUZ6IuXdmHXm6WEUF-9" vertex="1">
          <mxGeometry x="41.5" y="117.10843373493977" width="80" height="48.795180722891565" as="geometry" />
        </mxCell>
        <mxCell id="oRJmL7c2nuqXQMINb2G6-28" value="ventes_par_jour" style="shape=internalStorage;whiteSpace=wrap;html=1;backgroundOutline=1;spacingTop=-5;verticalAlign=top;align=center;spacingLeft=18;" parent="nhToUZ6IuXdmHXm6WEUF-9" vertex="1">
          <mxGeometry x="31.5" y="341.566265060241" width="128.5" height="48.795180722891565" as="geometry" />
        </mxCell>
        <mxCell id="oRJmL7c2nuqXQMINb2G6-30" value="ventes_par_ville" style="shape=internalStorage;whiteSpace=wrap;html=1;backgroundOutline=1;spacingTop=-5;verticalAlign=top;align=center;spacingLeft=18;" parent="nhToUZ6IuXdmHXm6WEUF-9" vertex="1">
          <mxGeometry x="181.5" y="341.566265060241" width="120" height="48.795180722891565" as="geometry" />
        </mxCell>
        <mxCell id="oRJmL7c2nuqXQMINb2G6-38" value="ca_total" style="shape=internalStorage;whiteSpace=wrap;html=1;backgroundOutline=1;spacingTop=-5;verticalAlign=top;align=center;spacingLeft=18;" parent="nhToUZ6IuXdmHXm6WEUF-9" vertex="1">
          <mxGeometry x="201.5" y="419.6385542168675" width="120" height="48.795180722891565" as="geometry" />
        </mxCell>
        <mxCell id="oRJmL7c2nuqXQMINb2G6-29" value="ventes_par_produit" style="shape=internalStorage;whiteSpace=wrap;html=1;backgroundOutline=1;spacingTop=-5;verticalAlign=top;align=center;spacingLeft=18;" parent="nhToUZ6IuXdmHXm6WEUF-9" vertex="1">
          <mxGeometry x="51.5" y="419.6385542168675" width="138.5" height="48.795180722891565" as="geometry" />
        </mxCell>
        <mxCell id="oRJmL7c2nuqXQMINb2G6-35" value="ventes&lt;div&gt;&lt;br&gt;&lt;/div&gt;&lt;div&gt;...&lt;/div&gt;&lt;div&gt;...&lt;/div&gt;&lt;div&gt;...&lt;/div&gt;" style="shape=internalStorage;whiteSpace=wrap;html=1;backgroundOutline=1;spacingTop=-5;verticalAlign=top;align=center;spacingLeft=18;gradientColor=#B3B3B3;dashed=1;" parent="nhToUZ6IuXdmHXm6WEUF-9" vertex="1">
          <mxGeometry x="51.5" y="575.7831325301205" width="80" height="136.6265060240964" as="geometry" />
        </mxCell>
        <mxCell id="oRJmL7c2nuqXQMINb2G6-36" value="produits&lt;div&gt;&lt;br&gt;&lt;/div&gt;&lt;div&gt;...&lt;/div&gt;&lt;div&gt;...&lt;/div&gt;&lt;div&gt;...&lt;/div&gt;" style="shape=internalStorage;whiteSpace=wrap;html=1;backgroundOutline=1;verticalAlign=top;align=center;spacingLeft=20;spacingTop=-5;gradientColor=#B3B3B3;perimeterSpacing=0;dashed=1;" parent="nhToUZ6IuXdmHXm6WEUF-9" vertex="1">
          <mxGeometry x="141.5" y="575.7831325301205" width="80" height="136.6265060240964" as="geometry" />
        </mxCell>
        <mxCell id="oRJmL7c2nuqXQMINb2G6-37" value="magasins&lt;div&gt;&lt;br&gt;&lt;/div&gt;&lt;div&gt;...&lt;/div&gt;&lt;div&gt;...&lt;/div&gt;&lt;div&gt;...&lt;/div&gt;&lt;div&gt;&lt;br&gt;&lt;/div&gt;" style="shape=internalStorage;whiteSpace=wrap;html=1;backgroundOutline=1;spacingTop=-5;verticalAlign=top;spacingLeft=19;gradientColor=#B3B3B3;fillColor=default;dashed=1;" parent="nhToUZ6IuXdmHXm6WEUF-9" vertex="1">
          <mxGeometry x="231.5" y="575.7831325301205" width="80" height="136.6265060240964" as="geometry" />
        </mxCell>
        <mxCell id="nhToUZ6IuXdmHXm6WEUF-12" value="&lt;font style=&quot;font-size: 21px;&quot;&gt;Web ui pour SQLITE&lt;/font&gt;" style="rounded=1;whiteSpace=wrap;html=1;" parent="nhToUZ6IuXdmHXm6WEUF-6" vertex="1">
          <mxGeometry x="390" y="180" width="220" height="170" as="geometry" />
        </mxCell>
        <mxCell id="nhToUZ6IuXdmHXm6WEUF-4" value="" style="group" parent="WIyWlLk6GJQsqaUBKTNV-1" vertex="1" connectable="0">
          <mxGeometry x="10" y="-240" width="470" height="1020" as="geometry" />
        </mxCell>
        <mxCell id="oRJmL7c2nuqXQMINb2G6-4" value="Container: etl_mage_ia&lt;div&gt;&lt;font style=&quot;font-size: 20px;&quot;&gt;port: 6789&lt;/font&gt;&lt;/div&gt;" style="rounded=1;whiteSpace=wrap;html=1;align=center;verticalAlign=top;spacingTop=31;fontSize=30;spacingLeft=46;strokeColor=#3A9CFF;strokeWidth=2;fillColor=#000000;fontColor=#EDEDED;" parent="nhToUZ6IuXdmHXm6WEUF-4" vertex="1">
          <mxGeometry width="470" height="1020" as="geometry" />
        </mxCell>
        <mxCell id="oRJmL7c2nuqXQMINb2G6-43" value="" style="shape=image;verticalLabelPosition=bottom;labelBackgroundColor=default;verticalAlign=top;aspect=fixed;imageAspect=0;image=data:image/png,iVBORw0KGgoAAAANSUhEUgAAAM8AAADzCAMAAAAW57K7AAABblBMVEUBAxYAAADx8fEAAA2lef9OT1j19fUAABX29vahdvogFzMAAAoAABP6+vq3t7sAAA+8vL5+foMBUHPW19jMzM9GRlAA0PwATHMAwf6wsLQAxP4Avv/Dw8eSk5gAyP0Ay/wBVW8A0fcAu/8TDh+Ygf8A0e4A0OYCDRQA0OAA0fgBU3MtIUcA0NIA0Mufff8A0MgBVWsnKTUAW2qdnqI+N22Shf8A0NgBrvBC0LJIXaVpzpkhwt0AdoUAMz+Kj//i4uMu0LuTiv9mZ243OEJJ0K4PRm5b0KN5zoyBzoVtzpUewOcat+R+zoePzniczWsmxtMAGRgANTcAMEAkKUoArq47UY0BVFIAOVcAGiYOvbITZV02wqspfWs9jG8VKyF4eYFSnnQHQE0sSjJbXGRmqnJ6tW0AhYsJNVNFYjlcdzwqKzcSFwqk02pxhjqtzViBkzosMRHB00obTECbpDNEqYk/QBG4zkxOThDN0TYbGwY8uhrlAAAIHklEQVR4nO3a+2PTVBQH8J2EJtEkTUvbuUArjzInugmlgAjFzFVe4w0KE3RTqqCbCiq+/nvPvTePm67rsglyiuf7y7a7tMunJ/fcm3ZTU69TzNKrPoMXG/bQDntohz20wx7aYQ/tsId22EM77KEd9tAOe2iHPbTDHtphD+2wh3bYQzvsoR320A57aIc9tMMe2mEP7bCHdthDO+yhHfbQDntohz20wx7aYQ/tsId22EM77KEd9tAOe2iHPbTDHtphD+2wh3bYQzvsoR320A57aIc9tMMe2mEP7bCHdthDO+yhncKewMS4KqaXDbtavDGP/49S1OPeun379nmROxhIHz519+7d95PAqwcV9cBnp999Z/bQ9IG3983s/3AuOXH4/ONPTh35YI/MG2+aL+08i6agB+7NZ56Z1GPOfTSRHg++mB9VH7g/mR64d2yUx115ayI9WJ6FUR64j55TRybOAw+OKc/RnAfLIz0xZ2I8HixKz+yQB8szkR74MufZH3vclb0T6Qngoe6ZiT027J1MD5ZHeGQ7mBaX22HpgTvIufDRJ5PmCW6dEZ7TQx4P3nvpHtvzPHtnD9neA199ih69XUsP3BnvcUFl+NlUgmzEi4eG9n6BPMyWX8wEZcOI5B64rSeAT8+M8HhwcKzHHVTKmMpSHgTVshzupyAP5Eg5tPXzcqFdDeuRYRhRrVztA9iKU96cSu6B23qwPGcWj23yYHnGeqDqWxjHaGulmDL7hiOG/ZKbHtiSB1p+K5N7UKr7Ph6JHvEkfm1JVsEGSz48F39HHnP1ovAsDHlMOD6+PugxRJwQshlgQ9OSo5kn6ERyxLCiVO5B11LHJbH8irhEbTA2x/d24LHhK81zNPXA+YOJJ+WM9BhWw80Gl+LBzIPlEQeJsaRANoTyMMtRkTS/iRWKPU4u/tQOPObq2U2ew8JzvLCnnhbI8yJryBO05Y9r8sqK72/VQy2rXi311/uDat1KuMoTlRolPbkWuI0Hvr6YemYzj3seL7cCHnkia8nEgK6TjCUe6OJhVlNeh44qkGcLtRUNAFwzMLFPDtQA/gbkhemBfpPv5jr6eI+5egU9i/ntjqjPiUIeqyb/vq0mBjYD8WPNyjyqPE4JBrJwHXEgrAm10YesSTcc1UNiD8L05M94nMeGb1OPWk5jzzfCg9udC+M9TqssXveuOjVoOuKHUPPIijkV8FSBuqJAEDrJt+mThbVaLVpKPLtef9xHl85evLhpe3D4wxMFPd121hJgICpmeOXMY64nv3YbcrqtB/ga1gVNdZH8+pn0g1ouUeF+gOW5JNvB0HJ6+Gphj2xfsiV4rrjQnCpUUo8tS2FVZFWkIhTnLI6z2nK9ccNmmvoSxJ6h9adwv3YfXbsy0rN84njqOTXeI89OtIREpnnMvuwN6xAEATTE907HzHmglq2ffvXfeuC7SyM9V6/uwDOQvcl2O7Ix913NA2VRnma7I9KOCxRfb31TeiI/XYIyTz2XWtH9ATy6HHtEe+ulnpnl2IPt7cLJbTw2VNT0Fl98nOWQzh+3b+kvt1qZGq7qEbJ322arK9KSRY49u+0HHnyneR730uV0WfM8OXkq5Yz04IZGnqds3xG+lGl9lHQo2OtgSQxHHTXDVCJD9+yuX8P31zXPXOLZv++c8MTbg7ltPdqOxhEra+px5YyxtJ2LPKYBplw+a21wA7z/wRuGTs3KeTx3F+splkd44u3BY+gly+k5zfMEtvd4coIbchtgT6XXmyqPVW9lERMHD1K7PMvoljr2VLszCPFa1K43I2rkU2y/g+W5fk0sP9JzK/bsm3lb98wV8ExBSXnUHE/q45Z8OaZNBFkwH2eQ2o86vhFFkeE7alOR9QM/n0Lrjwc3rl9WHmxvj0F4poXnnOa5D0U8apmRzUDzqDZW3nQ3gQXC+wU/aRUKVsWSZZ58ivVr+EF4rsQe/BM91d6Wb2oeHD55ZEsPbuUVwXPFFj9SnxpBRfyihBeVmDF9/R0HnFFi/4/3btBoGr5aerBK5XVxtPTs9n7O27gRe8Ty8wDbbOy5qXme4PBWHndQDsNyvLWGpXJYHsTfV0P8RR9a+CVsDd2Ni8FyS/RyWF8L67Vavdld64AZ9MNuOBBzbnOaRTzww4830vb2Bbb42LOMHtmvxfZ6LtjaE78fkjwdxtW+x5vNMe+WyG/FGyGum7x3Eqgn2O37Id4GclLPA9Fmlee05hGf0m3teQGxd/xu1VYe+EnzPBSvgPKcm888e+Xwy/TsJiM9wcbPmueebLrSM39aTB/lkR+iomcPfQ881TwPVZvtzR498M7CzdRzUF63E+EJnv2ReLBd/5p6phfmVXsTHvUZ9yR4bHiqPHI5fR7fLPdmp989lnhwO6rayiR4gme/SI/aHvwaLxu9Q4cWNU/8LwiT4IHffvlZeXD6xOURnvnFhcyTDNP3BL//9UfmWU3eKOvNituGxLOSDJ/8gLjHxvKg54baHjxPV/jeQuxZFp50mLwn+PMvOX2UZzXdpTw+k3lmzo/07KHogY2/N7Jk/3gEt5KsrKykw4Hb1kLy/5HEh3xpsmEv0GKPHn71nP/v//NNSNhDO+yhHfbQDntohz20wx7aYQ/tsId22EM77KEd9tAOe2iHPbTDHtphD+2wh3bYQzvsoR320A57aIc9tMMe2mEP7bCHdthDO+yhHfbQDntohz20wx7aYQ/tsId22EM77KEd9tAOe2iHPbTDHtphD+2wh3bYQzvsoR320A57aIc9tMMe2mEP7bx+nn8Aui2mnSCEzPoAAAAASUVORK5CYII=;" parent="nhToUZ6IuXdmHXm6WEUF-4" vertex="1">
          <mxGeometry x="20" y="20" width="59.63" height="70" as="geometry" />
        </mxCell>
        <mxCell id="nhToUZ6IuXdmHXm6WEUF-19" value="" style="group" parent="nhToUZ6IuXdmHXm6WEUF-4" vertex="1" connectable="0">
          <mxGeometry x="-360" y="710" width="990" height="230" as="geometry" />
        </mxCell>
        <mxCell id="oRJmL7c2nuqXQMINb2G6-31" value="Pipeline: Update_DB" style="shape=singleArrow;whiteSpace=wrap;html=1;arrowWidth=0.8687747035573149;arrowSize=0.08191699604743122;verticalAlign=top;align=center;spacingTop=21;fontSize=21;fillColor=#d5e8d4;strokeColor=#82b366;spacingLeft=250;strokeWidth=4;opacity=80;" parent="nhToUZ6IuXdmHXm6WEUF-19" vertex="1">
          <mxGeometry width="990" height="230" as="geometry" />
        </mxCell>
        <mxCell id="oRJmL7c2nuqXQMINb2G6-33" value="&lt;span style=&quot;background-color: transparent; color: light-dark(rgb(0, 0, 0), rgb(255, 255, 255));&quot;&gt;Transformer&lt;/span&gt;&lt;div&gt;&lt;br&gt;&lt;div&gt;&lt;span style=&quot;font-size: 9px; background-color: transparent; color: light-dark(rgb(0, 0, 0), rgb(255, 255, 255));&quot;&gt;Evalue puis standarise les nouvelles données entrantes si besoin&lt;/span&gt;&lt;br&gt;&lt;/div&gt;&lt;/div&gt;" style="rounded=1;whiteSpace=wrap;html=1;fontSize=12;glass=0;strokeWidth=1;shadow=0;verticalAlign=top;spacingTop=4;" parent="nhToUZ6IuXdmHXm6WEUF-19" vertex="1">
          <mxGeometry x="540" y="70" width="120" height="120" as="geometry" />
        </mxCell>
        <mxCell id="oRJmL7c2nuqXQMINb2G6-34" value="Data exporter&lt;div&gt;&lt;br&gt;&lt;/div&gt;&lt;div&gt;&lt;font style=&quot;font-size: 10px;&quot;&gt;Mise à jour des informations dans la BDD&lt;/font&gt;&lt;/div&gt;" style="rounded=1;whiteSpace=wrap;html=1;fontSize=12;glass=0;strokeWidth=1;shadow=0;verticalAlign=top;spacingTop=2;" parent="nhToUZ6IuXdmHXm6WEUF-19" vertex="1">
          <mxGeometry x="680" y="70" width="120" height="120" as="geometry" />
        </mxCell>
        <mxCell id="oRJmL7c2nuqXQMINb2G6-42" value="&lt;div&gt;Data Loader&lt;br&gt;&lt;/div&gt;&lt;div&gt;&lt;br&gt;&lt;/div&gt;&lt;div&gt;Requete Http:&lt;/div&gt;Recuperation des nouvelles&lt;div&gt;&amp;nbsp;données&lt;/div&gt;" style="shape=singleArrow;whiteSpace=wrap;html=1;arrowWidth=0.6421052631578843;arrowSize=0.27789473684210286;" parent="nhToUZ6IuXdmHXm6WEUF-19" vertex="1">
          <mxGeometry x="260" y="50" width="230" height="140" as="geometry" />
        </mxCell>
        <mxCell id="nhToUZ6IuXdmHXm6WEUF-15" value="Url client" style="ellipse;shape=cloud;whiteSpace=wrap;html=1;" parent="nhToUZ6IuXdmHXm6WEUF-19" vertex="1">
          <mxGeometry x="50" y="35" width="160" height="160" as="geometry" />
        </mxCell>
        <mxCell id="oRJmL7c2nuqXQMINb2G6-25" value="" style="shape=flexArrow;endArrow=classic;html=1;rounded=1;entryX=0.444;entryY=0.067;entryDx=0;entryDy=0;entryPerimeter=0;strokeWidth=3;fillColor=#fff2cc;startSize=0;endSize=7;targetPerimeterSpacing=22;sourcePerimeterSpacing=0;strokeColor=#d6b656;exitX=0.478;exitY=0.277;exitDx=0;exitDy=0;exitPerimeter=0;" parent="WIyWlLk6GJQsqaUBKTNV-1" source="oRJmL7c2nuqXQMINb2G6-0" target="oRJmL7c2nuqXQMINb2G6-24" edge="1">
          <mxGeometry width="50" height="50" relative="1" as="geometry">
            <mxPoint x="780" y="160" as="sourcePoint" />
            <mxPoint x="810" y="80" as="targetPoint" />
            <Array as="points">
              <mxPoint x="810" y="190" />
              <mxPoint x="301" y="190" />
            </Array>
          </mxGeometry>
        </mxCell>
        <mxCell id="nhToUZ6IuXdmHXm6WEUF-13" value="" style="group" parent="WIyWlLk6GJQsqaUBKTNV-1" vertex="1" connectable="0">
          <mxGeometry x="-350" y="-70" width="990" height="240" as="geometry" />
        </mxCell>
        <mxCell id="oRJmL7c2nuqXQMINb2G6-21" value="Pipeline: Init_db" style="shape=singleArrow;whiteSpace=wrap;html=1;arrowWidth=0.8630434782608686;arrowSize=0.08393194706994327;verticalAlign=top;align=center;spacingTop=21;fontSize=21;fillColor=#dae8fc;strokeColor=#6c8ebf;spacingLeft=250;strokeWidth=4;opacity=80;" parent="nhToUZ6IuXdmHXm6WEUF-13" vertex="1">
          <mxGeometry width="990" height="240" as="geometry" />
        </mxCell>
        <mxCell id="WIyWlLk6GJQsqaUBKTNV-3" value="&lt;span style=&quot;background-color: transparent; color: light-dark(rgb(0, 0, 0), rgb(255, 255, 255));&quot;&gt;Transformer&lt;/span&gt;&lt;div&gt;&lt;br&gt;&lt;div&gt;&lt;span style=&quot;font-size: 9px; background-color: transparent; color: light-dark(rgb(0, 0, 0), rgb(255, 255, 255));&quot;&gt;- Création d&#39;une clé primaire pour la table des ventes&lt;/span&gt;&lt;br&gt;&lt;span style=&quot;font-size: 9px; background-color: transparent; color: light-dark(rgb(0, 0, 0), rgb(255, 255, 255));&quot;&gt;- Standardisation des noms de colonnes&lt;/span&gt;&lt;br&gt;&lt;/div&gt;&lt;/div&gt;" style="rounded=1;whiteSpace=wrap;html=1;fontSize=12;glass=0;strokeWidth=1;shadow=0;verticalAlign=top;spacingTop=14;" parent="nhToUZ6IuXdmHXm6WEUF-13" vertex="1">
          <mxGeometry x="530" y="75" width="120" height="125" as="geometry" />
        </mxCell>
        <mxCell id="oRJmL7c2nuqXQMINb2G6-3" value="Data exporter&lt;div&gt;&lt;br&gt;&lt;/div&gt;&lt;div&gt;&lt;font style=&quot;font-size: 10px;&quot;&gt;Creation des tables dans le database Sqlite et injection des données depuis les fichiers&lt;/font&gt;&lt;/div&gt;" style="rounded=1;whiteSpace=wrap;html=1;fontSize=12;glass=0;strokeWidth=1;shadow=0;verticalAlign=top;spacingTop=14;" parent="nhToUZ6IuXdmHXm6WEUF-13" vertex="1">
          <mxGeometry x="680" y="75" width="120" height="125" as="geometry" />
        </mxCell>
        <mxCell id="oRJmL7c2nuqXQMINb2G6-1" value="&lt;font style=&quot;font-size: 18px;&quot;&gt;Fichiers locaux&lt;/font&gt;&lt;div&gt;&lt;br&gt;&lt;/div&gt;&lt;div&gt;&lt;ul&gt;&lt;li&gt;Produits.csv&lt;/li&gt;&lt;li&gt;magasins.csv&lt;/li&gt;&lt;li&gt;ventes.csv&lt;/li&gt;&lt;/ul&gt;&lt;/div&gt;" style="shape=note;whiteSpace=wrap;html=1;backgroundOutline=1;darkOpacity=0.05;align=left;spacingLeft=5;" parent="nhToUZ6IuXdmHXm6WEUF-13" vertex="1">
          <mxGeometry x="60" y="30" width="130" height="180" as="geometry" />
        </mxCell>
        <mxCell id="oRJmL7c2nuqXQMINb2G6-23" value="Data Loader&lt;br&gt;&lt;br&gt;Charge les fichiers CSV cible dans le pipeline" style="shape=singleArrow;whiteSpace=wrap;html=1;arrowWidth=0.6421052631578843;arrowSize=0.27789473684210286;" parent="nhToUZ6IuXdmHXm6WEUF-13" vertex="1">
          <mxGeometry x="250" y="62.5" width="240" height="147.5" as="geometry" />
        </mxCell>
        <mxCell id="G4wGmUr2kx07MtFfl-VB-0" value="" style="group" vertex="1" connectable="0" parent="WIyWlLk6GJQsqaUBKTNV-1">
          <mxGeometry x="30" y="230" width="610" height="190" as="geometry" />
        </mxCell>
        <mxCell id="oRJmL7c2nuqXQMINb2G6-24" value="Pipeline: Create_views" style="shape=singleArrow;whiteSpace=wrap;html=1;arrowWidth=0.8768166089965418;arrowSize=0.14117647058823438;verticalAlign=top;align=center;spacingTop=21;fontSize=21;fillColor=#fff2cc;strokeColor=#d6b656;spacingLeft=-73;strokeWidth=4;opacity=80;container=0;" parent="G4wGmUr2kx07MtFfl-VB-0" vertex="1">
          <mxGeometry width="610" height="190" as="geometry" />
        </mxCell>
        <mxCell id="oRJmL7c2nuqXQMINb2G6-26" value="Custom block: define_views&lt;br&gt;&lt;br&gt;&lt;font style=&quot;font-size: 10px;&quot;&gt;Ouvre une connection sur la BDD SQLITE &amp;amp;&amp;nbsp;Creation des indicateurs de performance (Vues)&lt;/font&gt;" style="rounded=1;whiteSpace=wrap;html=1;fontSize=12;glass=0;strokeWidth=1;shadow=0;verticalAlign=top;spacingTop=-2;textShadow=0;" parent="G4wGmUr2kx07MtFfl-VB-0" vertex="1">
          <mxGeometry x="65" y="70" width="310" height="80" as="geometry" />
        </mxCell>
      </root>
    </mxGraphModel>
  </diagram>
</mxfile>
